<?xml version="1.0" standalone="no"?>
<!DOCTYPE svg PUBLIC "-//W3C//DTD SVG 20010904//EN"
 "http://www.w3.org/TR/2001/REC-SVG-20010904/DTD/svg10.dtd">
<svg version="1.0" xmlns="http://www.w3.org/2000/svg"
 width="1280.000000pt" height="1280.000000pt" viewBox="0 0 1280.000000 1280.000000"
 preserveAspectRatio="xMidYMid meet">
<metadata>
Created by potrace 1.15, written by Peter Selinger 2001-2017
</metadata>
<g transform="translate(0.000000,1280.000000) scale(0.100000,-0.100000)"
fill="#000000" stroke="none">
<path d="M5940 12769 c0 -11 11 -123 25 -247 13 -125 25 -242 27 -261 l3 -34
-251 -111 c-138 -61 -252 -115 -253 -120 -2 -5 111 -60 251 -121 236 -104 253
-113 251 -136 -1 -13 -14 -138 -29 -277 -15 -139 -24 -255 -21 -258 3 -3 38
18 79 48 40 30 99 73 131 96 l57 43 0 -388 0 -388 -377 377 c-208 207 -391
382 -406 387 -36 14 -108 14 -144 0 -34 -13 -80 -55 -99 -91 -18 -35 -18 -119
0 -161 8 -18 233 -250 520 -537 l506 -505 0 -300 0 -300 -382 382 c-269 268
-392 384 -413 390 -129 33 -245 -50 -245 -175 0 -28 5 -63 11 -79 5 -15 239
-258 520 -538 l509 -510 0 -652 0 -652 -31 -88 c-18 -48 -35 -91 -38 -95 -4
-4 -95 207 -204 469 -108 262 -196 478 -194 480 2 2 82 26 178 54 96 28 178
54 182 58 4 4 -69 54 -163 111 -162 98 -171 105 -165 129 41 160 92 371 89
371 -1 0 -82 -43 -179 -96 l-176 -97 -32 29 c-18 16 -84 78 -147 139 l-115
110 -3 -40 c-1 -22 -6 -114 -10 -204 l-7 -163 -193 -57 c-167 -49 -190 -58
-175 -69 10 -7 87 -55 170 -105 100 -60 153 -98 153 -109 0 -9 -20 -99 -45
-199 -25 -100 -44 -183 -43 -185 2 -1 83 42 180 96 l177 98 24 -27 c19 -19
278 -624 394 -919 3 -7 -39 8 -93 33 l-99 46 -422 422 -423 422 0 780 c0 506
-4 793 -10 817 -21 76 -102 138 -180 138 -43 0 -107 -29 -137 -61 -54 -59 -53
-51 -53 -696 l0 -598 -210 210 -210 210 0 788 c0 852 1 827 -53 885 -83 89
-237 69 -297 -38 l-25 -45 -5 -603 -5 -602 -304 304 c-197 197 -300 307 -290
310 7 2 83 15 168 28 l154 23 -222 178 c-121 98 -221 183 -221 190 0 7 45 127
99 267 55 140 98 256 97 258 -2 1 -119 -43 -261 -98 -143 -55 -262 -100 -267
-100 -4 0 -88 100 -185 222 -128 160 -179 216 -181 202 -2 -10 -22 -138 -45
-284 l-42 -265 -265 -41 c-146 -23 -273 -43 -284 -45 -13 -3 45 -55 203 -182
122 -98 221 -182 221 -186 0 -5 -45 -124 -100 -266 -55 -141 -100 -258 -100
-260 0 -5 69 21 325 121 105 41 196 74 202 74 7 0 84 -89 171 -197 88 -109
168 -209 179 -222 l19 -23 23 158 c13 88 26 162 30 166 4 4 128 -114 276 -262
l270 -270 -513 0 c-356 0 -527 -4 -559 -12 -62 -15 -116 -70 -132 -132 -15
-61 5 -139 46 -178 62 -60 36 -58 820 -58 l718 0 210 -210 210 -210 -530 0
c-494 0 -533 -2 -570 -19 -48 -22 -79 -54 -100 -103 -41 -99 18 -218 123 -248
24 -6 289 -10 747 -10 l710 0 457 -457 c474 -476 472 -474 531 -615 l16 -37
-43 17 c-284 114 -916 379 -916 384 0 3 41 81 91 173 50 91 90 167 88 169 -2
1 -89 -18 -194 -44 -104 -26 -193 -45 -196 -44 -4 2 -53 80 -110 174 -56 93
-104 168 -106 166 -2 -1 -28 -87 -57 -190 -30 -104 -56 -190 -58 -192 -2 -2
-95 -7 -205 -11 l-202 -8 140 -147 140 -147 -97 -176 c-53 -97 -95 -177 -93
-179 2 -1 90 19 194 44 105 26 193 45 197 43 3 -2 53 -79 109 -173 57 -93 105
-168 106 -166 3 3 113 377 113 383 0 2 16 3 35 3 31 0 125 -37 773 -305 90
-37 160 -71 155 -75 -4 -4 -48 -21 -97 -38 l-88 -32 -602 0 -601 0 -550 551
c-303 303 -567 559 -587 570 -45 23 -127 25 -167 5 -42 -22 -89 -80 -101 -125
-10 -37 -8 -56 7 -116 3 -11 199 -215 436 -452 l432 -433 -300 0 -300 0 -550
551 c-303 303 -567 559 -587 570 -44 22 -115 25 -161 5 -39 -16 -82 -61 -96
-99 -14 -36 -14 -108 0 -144 5 -15 202 -220 437 -455 l427 -428 -438 0 -437 0
81 113 c45 61 89 120 97 130 8 9 12 20 9 24 -4 3 -123 -6 -265 -21 -141 -16
-265 -29 -276 -30 -15 -1 -39 47 -130 252 -62 140 -116 253 -121 251 -6 -1
-60 -115 -121 -253 -92 -209 -114 -251 -130 -249 -10 1 -135 14 -276 29 -142
15 -260 25 -264 22 -3 -3 70 -107 161 -232 l166 -225 -166 -227 c-91 -124
-164 -229 -161 -232 3 -2 119 7 258 22 139 15 264 28 278 29 23 2 32 -15 137
-253 61 -140 115 -254 120 -252 4 1 58 116 119 255 102 232 113 252 135 250
13 -1 138 -14 277 -29 139 -15 255 -24 258 -21 3 3 -18 38 -48 79 -30 40 -73
99 -96 131 l-43 57 388 0 388 0 -377 -378 c-207 -207 -382 -390 -387 -405 -14
-36 -14 -108 0 -144 13 -34 55 -80 91 -99 32 -17 115 -18 155 -3 15 5 258 239
538 520 l510 509 300 0 300 0 -382 -382 c-268 -269 -384 -392 -390 -413 -33
-128 50 -245 174 -245 34 0 68 7 91 19 20 11 262 245 537 520 l500 501 652 0
651 0 89 -31 c48 -17 91 -34 95 -38 4 -3 -207 -95 -469 -204 -262 -108 -479
-193 -482 -188 -4 6 -28 89 -56 185 -27 97 -53 176 -56 176 -4 0 -53 -76 -109
-170 -89 -146 -106 -169 -124 -165 -12 3 -101 25 -198 49 -98 24 -178 42 -178
40 0 -1 43 -82 96 -179 l97 -176 -29 -32 c-16 -18 -78 -82 -138 -144 -61 -62
-108 -114 -106 -117 3 -2 94 -8 204 -13 l199 -8 56 -192 c30 -105 58 -190 61
-188 4 2 51 78 106 169 65 109 105 166 116 166 9 0 99 -20 199 -45 100 -25
183 -44 185 -43 1 2 -40 80 -92 173 -51 94 -94 175 -94 181 0 28 70 63 400
199 195 81 397 165 449 186 52 21 95 38 97 37 1 -2 -18 -46 -42 -98 l-45 -95
-422 -422 -422 -423 -780 0 c-506 0 -793 -4 -817 -10 -105 -30 -164 -149 -123
-248 21 -49 52 -81 100 -103 37 -17 78 -19 640 -19 l600 0 -210 -210 -210
-210 -788 0 c-852 0 -827 1 -885 -53 -89 -83 -69 -237 38 -297 l45 -25 603 -5
602 -5 -304 -304 c-198 -198 -307 -300 -310 -290 -2 7 -15 83 -28 168 l-23
154 -178 -221 c-97 -122 -183 -222 -190 -222 -7 0 -127 45 -267 100 -140 54
-255 98 -257 96 -2 -2 42 -119 97 -260 55 -141 100 -261 100 -266 0 -6 -99
-89 -220 -186 -122 -97 -219 -178 -218 -179 2 -2 127 -22 278 -45 151 -23 278
-45 281 -49 4 -3 26 -130 49 -281 23 -151 43 -276 45 -278 1 -1 82 97 179 218
97 121 181 220 185 220 5 0 125 -45 267 -100 142 -55 259 -99 260 -97 2 1 -42
117 -97 257 -54 140 -99 260 -99 267 0 7 100 92 221 190 l222 178 -154 23
c-85 13 -161 26 -168 28 -10 3 80 100 255 275 l269 269 5 -532 c5 -527 5 -533
27 -575 75 -139 276 -128 337 19 14 33 16 129 16 755 l0 718 210 210 210 210
0 -528 c0 -569 0 -568 53 -626 30 -32 94 -61 137 -61 78 0 159 62 180 138 6
24 10 289 10 747 l0 710 458 457 c475 474 473 472 614 531 l37 16 -18 -47
c-11 -26 -75 -182 -143 -347 -69 -165 -149 -360 -179 -432 -30 -73 -57 -133
-60 -133 -3 0 -76 38 -161 85 -85 46 -162 87 -170 90 -12 5 -5 -36 32 -187 26
-106 45 -196 44 -199 -2 -3 -80 -52 -174 -109 -93 -57 -169 -105 -167 -106 1
-2 87 -28 191 -58 103 -30 189 -56 191 -58 3 -2 8 -95 12 -205 l8 -202 147
140 148 140 175 -96 c97 -54 178 -96 179 -94 2 2 -18 91 -44 197 l-47 194 51
32 c28 18 106 66 173 107 67 40 117 76 110 80 -7 3 -94 30 -194 59 l-183 53 0
33 c0 40 369 939 381 927 4 -4 21 -48 38 -96 l31 -89 0 -601 0 -602 -551 -550
c-303 -303 -559 -567 -570 -587 -22 -43 -25 -115 -5 -161 18 -44 77 -94 125
-107 37 -10 56 -8 116 7 11 3 215 199 453 436 l432 432 0 -300 0 -300 -564
-565 c-617 -617 -585 -580 -573 -686 6 -54 47 -110 98 -136 38 -20 113 -23
156 -7 15 5 220 202 456 437 l427 427 0 -438 0 -438 -72 54 c-40 29 -99 72
-131 96 -32 23 -61 40 -64 37 -3 -3 6 -119 21 -258 15 -139 28 -264 29 -276 2
-22 -20 -33 -251 -136 -140 -61 -254 -116 -253 -120 0 -5 111 -58 248 -118
136 -60 250 -112 254 -116 3 -4 -7 -122 -23 -262 -15 -140 -27 -266 -26 -279
3 -21 24 -8 231 143 l227 167 228 -167 c206 -151 227 -164 230 -143 1 13 -11
139 -26 279 -16 140 -28 258 -26 261 2 3 119 57 260 119 184 81 254 116 243
123 -8 5 -124 57 -259 117 -223 99 -245 111 -243 132 1 13 14 137 29 276 14
139 24 255 21 258 -3 3 -64 -37 -136 -90 l-131 -96 0 388 0 387 373 -372 c204
-204 386 -378 404 -387 37 -18 109 -21 150 -5 38 14 83 57 99 96 18 42 18 115
0 156 -8 18 -233 250 -520 537 l-506 505 0 300 0 300 383 -382 c281 -281 390
-383 412 -388 17 -4 38 -9 47 -11 51 -14 151 45 184 107 20 40 18 122 -5 167
-11 20 -245 262 -520 537 l-501 500 0 652 0 651 31 89 c17 48 34 91 38 95 3 4
95 -207 204 -469 108 -262 193 -479 188 -482 -6 -3 -89 -28 -185 -56 -97 -27
-176 -52 -176 -56 0 -3 76 -52 170 -109 146 -89 169 -106 165 -124 -3 -11 -25
-101 -49 -199 -24 -97 -42 -177 -40 -177 2 0 81 43 176 95 95 52 176 95 180
95 3 0 71 -62 150 -137 l143 -138 3 40 c1 22 6 114 10 204 l7 164 195 57 195
57 -35 22 c-19 11 -97 58 -172 104 -89 53 -137 88 -138 99 0 9 20 99 45 199
25 100 44 183 43 185 -2 1 -79 -40 -173 -92 -93 -51 -175 -94 -181 -94 -6 0
-20 10 -31 22 -19 20 -397 917 -390 924 1 2 45 -17 97 -42 l95 -45 423 -422
422 -422 0 -780 c0 -538 4 -792 11 -820 21 -74 107 -135 189 -135 34 0 100 32
127 61 54 59 53 51 53 696 l0 598 210 -210 210 -210 0 -790 0 -791 23 -44 c50
-100 163 -133 260 -77 31 18 55 43 70 70 22 42 22 44 27 645 l5 602 304 -304
c198 -198 300 -307 290 -310 -7 -2 -83 -15 -168 -28 l-154 -23 222 -178 c121
-98 221 -183 221 -190 0 -7 -45 -127 -99 -267 -55 -140 -99 -256 -97 -257 1
-2 118 42 260 97 142 55 262 100 267 100 4 0 88 -99 185 -220 98 -121 178
-219 180 -217 1 1 21 126 44 277 23 151 45 278 49 282 3 3 130 25 281 48 151
23 276 43 278 45 1 1 -96 82 -218 179 -121 97 -220 180 -220 186 0 5 45 125
100 266 55 141 99 258 97 260 -2 2 -118 -41 -257 -96 -140 -55 -260 -100 -267
-100 -7 0 -93 100 -190 222 l-178 221 -23 -154 c-13 -85 -26 -161 -28 -168 -3
-10 -99 79 -275 255 l-269 269 532 5 533 5 48 28 c105 62 123 212 35 294 -58
54 -39 53 -815 53 l-718 0 -210 210 -210 210 530 0 c494 0 533 2 570 19 48 22
79 54 100 103 41 99 -18 218 -123 248 -24 6 -289 10 -747 10 l-710 0 -457 458
-457 457 -45 95 c-24 52 -43 96 -42 97 1 1 157 -62 347 -141 189 -78 404 -167
476 -197 73 -30 133 -57 133 -60 0 -3 -41 -81 -91 -173 -50 -92 -90 -168 -88
-170 2 -1 90 19 194 44 105 26 193 45 197 43 4 -2 53 -80 109 -173 57 -93 104
-169 105 -167 2 1 28 87 58 191 31 104 57 190 59 192 2 2 94 7 205 11 l201 8
-140 147 -140 147 97 176 c53 97 94 178 92 180 -1 2 -90 -18 -196 -45 l-193
-47 -32 51 c-18 28 -66 106 -107 174 -58 96 -76 119 -82 105 -4 -10 -31 -98
-59 -195 l-52 -178 -32 0 c-17 0 -128 40 -246 88 -118 49 -321 133 -451 187
-131 54 -238 101 -238 104 0 3 44 21 98 39 l97 32 600 0 600 0 550 -551 c303
-303 567 -559 587 -570 43 -22 115 -25 161 -5 44 18 94 77 107 125 10 37 8 56
-7 116 -3 11 -199 215 -436 453 l-432 432 300 0 300 0 550 -551 c303 -303 567
-559 587 -570 109 -56 252 16 265 135 12 105 31 82 -440 554 l-431 432 437 0
438 0 -54 -72 c-29 -40 -72 -99 -96 -131 -23 -32 -40 -61 -37 -64 3 -3 117 6
253 21 137 15 261 28 277 29 29 2 30 -1 140 -250 61 -139 115 -254 119 -255 5
-2 59 112 121 252 111 253 112 255 142 253 16 -1 140 -14 277 -29 136 -15 250
-25 253 -22 3 3 -70 108 -161 232 l-166 226 167 228 c123 167 162 228 150 230
-9 2 -125 -8 -259 -22 -133 -15 -253 -27 -267 -29 -23 -2 -31 14 -135 249 -60
138 -114 252 -120 254 -5 1 -60 -112 -121 -252 -90 -204 -116 -253 -131 -252
-10 1 -134 14 -275 30 -142 15 -261 25 -264 21 -3 -3 18 -38 48 -79 30 -40 73
-99 96 -130 l43 -58 -388 0 -388 0 372 373 c204 204 378 386 387 404 18 37 21
109 5 150 -13 34 -55 80 -91 99 -35 18 -119 18 -161 0 -18 -8 -250 -233 -537
-520 l-505 -506 -300 0 -300 0 377 378 c207 207 382 388 388 402 7 13 13 47
13 76 0 103 -79 184 -179 184 -29 0 -65 -5 -81 -11 -15 -5 -258 -239 -538
-520 l-510 -509 -652 0 -651 0 -88 32 c-49 17 -92 34 -97 38 -4 3 208 95 470
203 262 109 479 193 482 188 3 -6 29 -89 56 -185 28 -97 53 -176 56 -176 3 0
52 77 109 170 56 94 105 170 109 170 3 -1 93 -22 199 -49 105 -26 192 -47 192
-45 0 1 -43 82 -96 179 l-96 176 23 27 c13 15 76 81 139 147 113 118 114 120
85 123 -16 1 -108 6 -204 10 l-174 7 -56 192 c-30 105 -58 190 -62 188 -3 -2
-50 -78 -105 -169 -65 -109 -105 -165 -116 -166 -9 0 -99 20 -199 45 -100 25
-183 44 -185 43 -1 -2 40 -79 92 -173 51 -93 94 -175 94 -181 0 -6 -10 -20
-22 -31 -20 -18 -918 -397 -924 -390 -2 1 17 45 42 97 l45 95 422 423 422 422
780 0 c538 0 792 4 820 11 74 21 135 107 135 189 0 34 -32 100 -61 127 -59 54
-51 53 -696 53 l-598 0 210 210 210 210 790 0 791 0 44 23 c26 12 57 40 74 64
59 85 28 211 -64 263 l-45 25 -603 5 -602 5 304 304 c198 198 307 300 310 290
2 -7 15 -83 28 -168 l23 -154 179 223 c163 203 180 221 203 215 14 -3 104 -37
201 -75 240 -93 312 -120 312 -116 0 2 -45 119 -100 261 -55 141 -100 260
-100 265 0 5 99 89 220 186 121 98 219 179 217 180 -1 1 -126 21 -277 44 -151
24 -278 45 -282 49 -3 3 -25 130 -48 281 -23 151 -43 276 -45 278 -1 1 -82
-96 -179 -218 -97 -121 -180 -220 -184 -220 -5 0 -124 45 -267 100 -142 55
-259 99 -261 97 -1 -1 42 -117 97 -257 54 -140 99 -260 99 -266 0 -7 -100 -92
-221 -190 l-221 -178 160 -26 c88 -14 163 -27 166 -30 3 -3 -116 -127 -264
-275 l-270 -270 0 513 c0 356 -4 527 -12 559 -42 168 -277 187 -349 28 -17
-38 -19 -83 -19 -760 l0 -720 -210 -210 -210 -210 0 528 c0 569 0 568 -53 626
-30 32 -94 61 -137 61 -78 0 -159 -62 -180 -138 -6 -24 -10 -289 -10 -747 l0
-710 -457 -457 -458 -457 -98 -46 c-54 -25 -97 -41 -95 -37 78 198 395 952
400 952 4 0 76 -38 160 -84 84 -47 160 -88 169 -91 13 -5 7 29 -31 187 -26
106 -45 196 -43 200 2 3 79 53 173 109 93 57 168 105 166 106 -2 2 -87 28
-190 57 -103 30 -189 56 -191 58 -2 2 -8 95 -12 206 l-8 201 -147 -140 -147
-140 -176 97 c-97 53 -177 95 -179 93 -2 -2 18 -91 44 -197 l47 -194 -51 -32
c-28 -18 -106 -66 -173 -106 -68 -41 -121 -75 -119 -77 1 -2 81 -26 177 -53
96 -28 182 -53 192 -56 12 -4 17 -16 17 -39 0 -40 -369 -940 -381 -928 -4 5
-21 48 -38 96 l-31 89 0 601 0 602 541 540 c298 297 554 560 570 584 33 51 39
118 15 174 -18 44 -77 94 -125 107 -37 10 -56 8 -116 -7 -11 -3 -215 -199
-452 -436 l-433 -432 0 300 0 300 551 550 c303 303 559 567 570 587 22 44 25
115 5 161 -16 39 -61 82 -99 96 -36 14 -108 14 -144 0 -15 -5 -220 -202 -455
-437 l-428 -427 0 438 0 438 73 -54 c39 -29 98 -72 130 -96 32 -23 61 -40 64
-37 3 3 -7 119 -21 258 -15 139 -28 264 -29 277 -2 22 17 33 251 136 140 61
253 116 251 121 -1 5 -115 59 -253 120 -232 102 -251 113 -249 135 1 13 14
138 29 277 14 139 24 255 21 258 -2 3 -106 -70 -231 -161 l-226 -165 -226 165
c-124 91 -227 165 -229 165 -3 0 -5 -9 -5 -21z m560 -5595 c52 -146 97 -269
100 -275 4 -5 125 48 269 116 145 69 265 124 267 122 3 -2 -52 -122 -121 -267
-69 -145 -124 -265 -122 -266 6 -7 537 -194 549 -194 32 0 -23 -24 -192 -83
-233 -82 -360 -128 -360 -131 0 -1 56 -121 125 -266 69 -144 124 -265 122
-267 -2 -2 -123 53 -267 122 -146 69 -266 121 -270 116 -3 -6 -48 -129 -100
-275 -52 -147 -97 -266 -100 -266 -4 0 -49 120 -100 266 -52 146 -97 270 -100
275 -4 5 -125 -47 -270 -116 -144 -69 -265 -124 -267 -121 -2 2 53 122 121
267 69 144 124 264 122 267 -2 2 -116 43 -253 92 -312 111 -312 111 -293 117
90 31 544 194 547 197 2 1 -53 121 -122 266 -69 145 -124 265 -121 267 2 2
122 -53 267 -121 144 -69 264 -124 266 -122 4 4 180 493 190 529 3 9 8 17 12
17 4 0 50 -120 101 -266z"/>
<path d="M6341 6952 c-30 -86 -60 -171 -68 -189 l-13 -32 -72 36 c-156 76
-281 133 -285 129 -2 -2 34 -83 81 -180 70 -146 82 -178 69 -183 -8 -3 -95
-34 -192 -69 -169 -60 -175 -63 -146 -74 17 -7 99 -36 183 -66 84 -29 157 -56
162 -59 5 -3 -30 -84 -76 -181 -47 -97 -83 -178 -81 -180 2 -3 82 33 178 79
96 47 177 82 181 78 3 -3 34 -86 69 -183 35 -98 66 -178 69 -178 3 0 35 81 70
181 35 99 66 182 69 183 4 2 84 -35 180 -81 96 -46 176 -82 178 -80 2 3 -34
84 -81 181 -46 96 -81 178 -76 181 5 3 78 30 162 59 84 30 167 59 183 66 29
11 23 14 -146 74 -97 35 -184 66 -192 69 -13 5 -1 37 69 183 46 97 83 179 81
181 -2 2 -80 -33 -173 -77 -93 -44 -174 -80 -179 -80 -6 0 -39 80 -74 178 -35
97 -66 180 -69 184 -4 4 -31 -64 -61 -150z m98 -239 c19 -54 37 -101 41 -106
3 -4 50 13 104 39 54 25 99 44 102 41 3 -2 -16 -48 -41 -102 -25 -54 -42 -102
-38 -105 5 -4 52 -22 106 -40 53 -18 97 -36 97 -39 0 -3 -44 -21 -98 -40 -53
-19 -100 -37 -105 -41 -4 -3 13 -51 38 -105 25 -54 44 -99 42 -102 -3 -2 -48
17 -102 42 -54 25 -102 42 -105 38 -4 -5 -22 -52 -41 -105 -19 -54 -36 -98
-39 -98 -3 0 -21 44 -39 98 -19 53 -37 100 -41 105 -3 4 -51 -13 -105 -38 -54
-25 -100 -44 -102 -41 -2 2 16 48 42 102 25 54 42 101 38 104 -5 4 -52 22
-105 41 -54 19 -98 37 -98 40 0 3 42 20 93 38 50 17 98 35 105 40 9 6 1 31
-33 106 -25 54 -44 100 -41 102 3 3 48 -16 102 -41 54 -26 101 -43 104 -39 4
5 22 52 40 106 18 53 36 97 39 97 4 0 22 -44 40 -97z"/>
</g>
</svg>
